<?xml version="1.0" encoding="utf-8"?>
<!-- Generator: Adobe Illustrator 24.0.2, SVG Export Plug-In . SVG Version: 6.00 Build 0)  -->
<svg version="1.1" id="Capa_2_1_" xmlns="http://www.w3.org/2000/svg" xmlns:xlink="http://www.w3.org/1999/xlink" x="0px" y="0px"
	 viewBox="0 0 577.8 124.2" style="enable-background:new 0 0 577.8 124.2;" xml:space="preserve">
<style type="text/css">
	.st0{fill:#C9C5C2;}
	.st1{fill:url(#SVGID_1_);}
	.st2{fill:url(#SVGID_2_);}
	.st3{fill:url(#SVGID_3_);}
	.st4{fill:url(#SVGID_4_);}
	.st5{fill:url(#SVGID_5_);}
	.st6{fill:url(#SVGID_6_);}
	.st7{fill:url(#SVGID_7_);}
	.st8{fill:url(#SVGID_8_);}
	.st9{fill:url(#SVGID_9_);}
	.st10{fill:url(#SVGID_10_);}
	.st11{fill:url(#SVGID_11_);}
	.st12{fill:url(#SVGID_12_);}
	.st13{fill:url(#SVGID_13_);}
	.st14{fill:url(#SVGID_14_);}
	.st15{fill:url(#SVGID_15_);}
	.st16{fill:url(#SVGID_16_);}
	.st17{fill:url(#SVGID_17_);}
	.st18{fill:url(#SVGID_18_);}
	.st19{fill:url(#SVGID_19_);}
	.st20{fill:url(#SVGID_20_);}
	.st21{fill:url(#SVGID_21_);}
	.st22{fill:url(#SVGID_22_);}
	.st23{fill:url(#SVGID_23_);}
	.st24{fill:url(#SVGID_24_);}
	.st25{fill:url(#SVGID_25_);}
	.st26{fill:#343433;}
	.st27{fill:url(#SVGID_26_);}
	.st28{fill:url(#SVGID_27_);}
	.st29{fill:url(#SVGID_28_);}
	.st30{fill:url(#SVGID_29_);}
	.st31{fill:url(#SVGID_30_);}
	.st32{fill:#FFFFFF;}
</style>
<g>
	<g>
		<g>
			<path class="st0" d="M455.4,22.5c-61.9,0-111.6,18.6-111.6,41.8c0,23.1,50,41.8,111.6,41.8c61.5,0,111.5-18.8,111.5-41.8
				C567,41.2,516.9,22.5,455.4,22.5z M566.3,61.1c0,0.2,0.1,0.4,0.1,0.6C566.3,61.5,566.3,61.3,566.3,61.1z"/>
		</g>
		
			<radialGradient id="SVGID_1_" cx="553.8987" cy="-1015.4787" r="304.3419" gradientTransform="matrix(1.5825 0 0 -1.5431 -421.9685 -1083.1537)" gradientUnits="userSpaceOnUse">
			<stop  offset="0" style="stop-color:#101638"/>
			<stop  offset="0.5368" style="stop-color:#14153D"/>
			<stop  offset="0.7" style="stop-color:#161440"/>
			<stop  offset="0.9045" style="stop-color:#1E2756"/>
			<stop  offset="0.9129" style="stop-color:#1D3A6C"/>
			<stop  offset="0.9318" style="stop-color:#1B6298"/>
			<stop  offset="0.9464" style="stop-color:#1A7AB4"/>
			<stop  offset="0.955" style="stop-color:#1A83BE"/>
		</radialGradient>
		<path class="st1" d="M455.4,24.1c-60.7,0-109.9,17.9-109.9,40.1c0,22.2,49.2,40.1,109.9,40.1c60.7,0,109.8-17.9,109.8-40.1
			C565.2,42.1,516.1,24.1,455.4,24.1z"/>
		<g>
			<g>
				
					<linearGradient id="SVGID_2_" gradientUnits="userSpaceOnUse" x1="547.9877" y1="-2189.5383" x2="547.9877" y2="-2068.0759" gradientTransform="matrix(0.7 0 0 -0.7 71.621 -1425.625)">
					<stop  offset="0" style="stop-color:#161440"/>
					<stop  offset="0.4643" style="stop-color:#181744"/>
					<stop  offset="0.809" style="stop-color:#1C1E4C"/>
					<stop  offset="0.8458" style="stop-color:#1C2656"/>
					<stop  offset="1" style="stop-color:#1D437F"/>
				</linearGradient>
				<path class="st2" d="M354.3,65.8c0-18.4,45.5-33.3,101.6-33.3c51.6,0,94.2,12.6,100.7,28.9c-4.3-17.2-48-30.7-101.2-30.7
					c-56.1,0-101.6,15-101.6,33.5c0,1.5,0.3,3,0.9,4.4C354.5,67.8,354.3,66.8,354.3,65.8z"/>
				
					<linearGradient id="SVGID_3_" gradientUnits="userSpaceOnUse" x1="549.9662" y1="-2189.5544" x2="549.9662" y2="-2068.0884" gradientTransform="matrix(0.7 0 0 -0.7 71.621 -1425.625)">
					<stop  offset="0" style="stop-color:#161440"/>
					<stop  offset="0.4643" style="stop-color:#181744"/>
					<stop  offset="0.809" style="stop-color:#1C1E4C"/>
					<stop  offset="0.8458" style="stop-color:#1C2656"/>
					<stop  offset="1" style="stop-color:#1D437F"/>
				</linearGradient>
				<path class="st3" d="M560,60.1c0.5,1.4,0.7,2.8,0.7,4.2c0,20.2-47.1,36.6-105.3,36.6c-51.7,0-94.8-13-103.6-30.1
					c6.7,17.8,50.9,31.6,104.4,31.6c58.1,0,105.2-16.3,105.2-36.3C561.4,64,560.9,62,560,60.1z"/>
			</g>
			<g>
				
					<linearGradient id="SVGID_4_" gradientUnits="userSpaceOnUse" x1="575.4389" y1="-2164.8772" x2="575.4389" y2="-2079.74" gradientTransform="matrix(0.7 0 0 -0.7 71.633 -1422.766)">
					<stop  offset="0" style="stop-color:#161440"/>
					<stop  offset="0.4643" style="stop-color:#181744"/>
					<stop  offset="0.809" style="stop-color:#1C1E4C"/>
					<stop  offset="0.8458" style="stop-color:#1C2656"/>
					<stop  offset="1" style="stop-color:#1D437F"/>
				</linearGradient>
				<path class="st4" d="M475,67.8c-2.4,2.5-2.5,5.6-1,7.1c0.5,0.5,1.2,0.7,1.9,0.8c-1-1.3-1.5-3.8-0.2-5.8
					c-0.2-0.6-0.3-1.3-0.1-1.9C475.6,67.8,475.2,67.6,475,67.8z"/>
				
					<linearGradient id="SVGID_5_" gradientUnits="userSpaceOnUse" x1="611.4246" y1="-2164.8677" x2="611.4246" y2="-2079.7573" gradientTransform="matrix(0.7 0 0 -0.7 71.633 -1422.766)">
					<stop  offset="0" style="stop-color:#161440"/>
					<stop  offset="0.4643" style="stop-color:#181744"/>
					<stop  offset="0.809" style="stop-color:#1C1E4C"/>
					<stop  offset="0.8458" style="stop-color:#1C2656"/>
					<stop  offset="1" style="stop-color:#1D437F"/>
				</linearGradient>
				<path class="st5" d="M499.3,73.2C499.3,73.1,499.3,73.1,499.3,73.2C499.3,73.1,499.3,73.1,499.3,73.2c0,0.3,0.1,1,0.2,1.5
					c0.1-0.2,0.2-0.5,0.4-0.8c0.1-0.2,0-0.3,0-0.3C499.6,73.5,499.4,73.4,499.3,73.2z"/>
				
					<linearGradient id="SVGID_6_" gradientUnits="userSpaceOnUse" x1="616.6419" y1="-2164.8606" x2="616.6419" y2="-2079.7717" gradientTransform="matrix(0.7 0 0 -0.7 71.633 -1422.766)">
					<stop  offset="0" style="stop-color:#161440"/>
					<stop  offset="0.4643" style="stop-color:#181744"/>
					<stop  offset="0.809" style="stop-color:#1C1E4C"/>
					<stop  offset="0.8458" style="stop-color:#1C2656"/>
					<stop  offset="1" style="stop-color:#1D437F"/>
				</linearGradient>
				<path class="st6" d="M503.6,67.6c0,0.4,0.3,0.4,0.6,0.1c0.1-0.1,0.1-0.2,0.2-0.3c-0.1-0.1-0.2-0.2-0.2-0.3c-0.3-0.4-1.2-1.3-2-2
					C503,65.8,503.5,66.7,503.6,67.6z"/>
				
					<linearGradient id="SVGID_7_" gradientUnits="userSpaceOnUse" x1="569.6491" y1="-2164.9417" x2="569.6491" y2="-2079.6587" gradientTransform="matrix(0.7 0 0 -0.7 71.633 -1422.766)">
					<stop  offset="0" style="stop-color:#161440"/>
					<stop  offset="0.4643" style="stop-color:#181744"/>
					<stop  offset="0.809" style="stop-color:#1C1E4C"/>
					<stop  offset="0.8458" style="stop-color:#1C2656"/>
					<stop  offset="1" style="stop-color:#1D437F"/>
				</linearGradient>
				<path class="st7" d="M470.9,67.3c0.1-0.2,0.2-0.3,0.3-0.4c-0.5-1.4-1.2-2.8-1.7-3.3c0.6,0.9,0.9,2.1,0.9,3.7
					C470.4,67.6,470.7,67.6,470.9,67.3z"/>
				
					<linearGradient id="SVGID_8_" gradientUnits="userSpaceOnUse" x1="641.9134" y1="-2106.9172" x2="641.9134" y2="-2106.9058" gradientTransform="matrix(0.7 0 0 -0.7 71.633 -1422.766)">
					<stop  offset="0" style="stop-color:#161440"/>
					<stop  offset="0.4643" style="stop-color:#181744"/>
					<stop  offset="0.809" style="stop-color:#1C1E4C"/>
					<stop  offset="0.8458" style="stop-color:#1C2656"/>
					<stop  offset="1" style="stop-color:#1D437F"/>
				</linearGradient>
				<polygon class="st8" points="521,52.1 521,52.1 521,52.1 				"/>
				
					<linearGradient id="SVGID_9_" gradientUnits="userSpaceOnUse" x1="603.4343" y1="-2164.9041" x2="603.4343" y2="-2079.696" gradientTransform="matrix(0.7 0 0 -0.7 71.633 -1422.766)">
					<stop  offset="0" style="stop-color:#161440"/>
					<stop  offset="0.4643" style="stop-color:#181744"/>
					<stop  offset="0.809" style="stop-color:#1C1E4C"/>
					<stop  offset="0.8458" style="stop-color:#1C2656"/>
					<stop  offset="1" style="stop-color:#1D437F"/>
				</linearGradient>
				<path class="st9" d="M489.1,82.4c0.3,0.1,0.5,0.2,0.8,0.3c-0.1-0.4-0.1-0.8-0.1-1.1c0-2.8,0.8-5.5,3-8.2c2.7-3.3,5.5-4.9,7.4-4
					c-0.1-0.7-0.5-1.3-1.3-1.7c-1.9-0.9-4.9,0.8-7.6,4.1c-2.2,2.7-3.4,5.4-3.4,8.1C487.9,80.8,488.2,82,489.1,82.4z"/>
				
					<linearGradient id="SVGID_10_" gradientUnits="userSpaceOnUse" x1="529.761" y1="-2164.8748" x2="529.761" y2="-2079.7305" gradientTransform="matrix(0.7 0 0 -0.7 71.633 -1422.766)">
					<stop  offset="0" style="stop-color:#161440"/>
					<stop  offset="0.4643" style="stop-color:#181744"/>
					<stop  offset="0.809" style="stop-color:#1C1E4C"/>
					<stop  offset="0.8458" style="stop-color:#1C2656"/>
					<stop  offset="1" style="stop-color:#1D437F"/>
				</linearGradient>
				<path class="st10" d="M447.7,68.2c0.4-0.2,0.4-0.3,0.3-0.7c-0.1-0.5-0.5-1.8-0.6-2.1l0,0c0.1,0.3,0,0.5-0.3,0.6
					c-3,1.1-6,2.9-8.1,5.7c-2.3,3.1-3,6.9-1.4,9.1c0.4,0.5,0.8,0.9,1.3,1.1c-0.9-2.6-0.2-6.1,1.8-8.8
					C442.8,70.4,445.1,69.3,447.7,68.2z"/>
				
					<linearGradient id="SVGID_11_" gradientUnits="userSpaceOnUse" x1="566.5466" y1="-2164.8831" x2="566.5466" y2="-2079.7205" gradientTransform="matrix(0.7 0 0 -0.7 71.633 -1422.766)">
					<stop  offset="0" style="stop-color:#161440"/>
					<stop  offset="0.4643" style="stop-color:#181744"/>
					<stop  offset="0.809" style="stop-color:#1C1E4C"/>
					<stop  offset="0.8458" style="stop-color:#1C2656"/>
					<stop  offset="1" style="stop-color:#1D437F"/>
				</linearGradient>
				<path class="st11" d="M481,77.8c-0.7,0.5-1.6,1.1-2.8,1.5c-1.4,0.5-2.1,0.7-3.4,0.7c-1.6,0-3.1-0.7-4.2-2.3
					c-0.6-0.9-0.8-2.2-0.9-3.2c0-0.1-0.1-0.3-0.3-0.1c-2.8,4.3-5.4,8.4-8.1,12.7c-0.1,0.2-0.3,0.3-0.6,0.3c-1.7,0-3.6,0-5.5,0
					c-0.2,0-0.3-0.1-0.4-0.2c0.1,0.7,0.4,1.8,0.5,2.1c0,0.2,0.2,0.3,0.4,0.3c2,0,4.5,0,6.2,0c0.2,0,0.4-0.2,0.6-0.3
					c2.5-3.9,5.2-8.2,7.7-12.1c0.6,2,0.9,2.9,1.9,3.8c1.1,0.9,2,1.2,3.5,1.2c1.3,0,2.6-0.5,4.2-1.1c0.5-0.2,1-0.5,1.5-0.8
					c0-0.7,0.1-1.5,0.2-2.2C481.5,78,481.5,77.5,481,77.8z"/>
				
					<linearGradient id="SVGID_12_" gradientUnits="userSpaceOnUse" x1="611.5826" y1="-2164.8757" x2="611.5826" y2="-2079.7173" gradientTransform="matrix(0.7 0 0 -0.7 71.633 -1422.766)">
					<stop  offset="0" style="stop-color:#161440"/>
					<stop  offset="0.4643" style="stop-color:#181744"/>
					<stop  offset="0.809" style="stop-color:#1C1E4C"/>
					<stop  offset="0.8458" style="stop-color:#1C2656"/>
					<stop  offset="1" style="stop-color:#1D437F"/>
				</linearGradient>
				<path class="st12" d="M517.5,76.3c0,0.1,0,0.2-0.1,0.3c-2.7,3.2-5.6,6.3-8.4,8.5c-4.4,3.4-8.7,4.2-10.9,2.1
					c-0.8-0.8-1.3-2-1.3-2.9c0-0.5-0.3-0.6-0.5-0.3c-2.6,2.5-7.1,5.4-11.1,3.3c-2.1-1-3.2-3-3.6-5.1c0,0,0,0.1,0,0.1
					c0.3,1.5,0.6,3.7,1.3,5.1c0.5,0.9,1.5,1.9,2.1,2.2c3.6,1.8,8.8-0.2,12.1-3.4c0,0,0,0,0.1-0.1c0.2,0.6,0.3,1.3,0.4,1.4
					c0.2,0.8,0.6,1.4,0.9,1.8c2.3,2.6,7.1,1.4,12.1-2.5c2.8-2.2,4.9-4.3,7.4-7.3c0.1-0.1,0.1-0.3,0-0.6
					C517.8,78.1,517.6,76.9,517.5,76.3z"/>
				
					<linearGradient id="SVGID_13_" gradientUnits="userSpaceOnUse" x1="582.694" y1="-2164.9333" x2="582.694" y2="-2079.6204" gradientTransform="matrix(0.7 0 0 -0.7 71.633 -1422.766)">
					<stop  offset="0" style="stop-color:#161440"/>
					<stop  offset="0.4643" style="stop-color:#181744"/>
					<stop  offset="0.809" style="stop-color:#1C1E4C"/>
					<stop  offset="0.8458" style="stop-color:#1C2656"/>
					<stop  offset="1" style="stop-color:#1D437F"/>
				</linearGradient>
				<path class="st13" d="M481,73.4c1.4-0.7,2.5-2.3,2.4-4.8c-0.1-1.3-0.5-2.5-1-3.6c0.4,0.8,0.6,1.7,0.4,2.6
					c-0.3,1.6-1.1,3.1-2.6,3.8c-1.3,0.6-2.7,0.5-3.8-0.4c-0.3-0.3-0.5-0.6-0.7-1c0.3,1.2,0.5,2.1,0.8,2.6
					C477.5,74.1,479.1,74.4,481,73.4z"/>
				
					<linearGradient id="SVGID_14_" gradientUnits="userSpaceOnUse" x1="629.1344" y1="-2164.874" x2="629.1344" y2="-2079.7412" gradientTransform="matrix(0.7 0 0 -0.7 71.633 -1422.766)">
					<stop  offset="0" style="stop-color:#161440"/>
					<stop  offset="0.4643" style="stop-color:#181744"/>
					<stop  offset="0.809" style="stop-color:#1C1E4C"/>
					<stop  offset="0.8458" style="stop-color:#1C2656"/>
					<stop  offset="1" style="stop-color:#1D437F"/>
				</linearGradient>
				<path class="st14" d="M521.6,55c-0.1-0.2-0.6-2.7-0.6-2.9c0,0.1,0,0.1,0,0.2c-0.8,1.5-17.2,26.3-18.2,28.9
					c-0.3,0.8-0.4,1.4,0,1.9c0.3,0.5,0.8,0.6,1.4,0.6c0.1-0.3,0.2-0.7,0.3-1c1-2.6,16.3-25.8,17.2-27.3
					C521.6,55.2,521.6,55.1,521.6,55z"/>
				
					<linearGradient id="SVGID_15_" gradientUnits="userSpaceOnUse" x1="546.9348" y1="-2164.8665" x2="546.9348" y2="-2079.7444" gradientTransform="matrix(0.7 0 0 -0.7 71.633 -1422.766)">
					<stop  offset="0" style="stop-color:#161440"/>
					<stop  offset="0.4643" style="stop-color:#181744"/>
					<stop  offset="0.809" style="stop-color:#1C1E4C"/>
					<stop  offset="0.8458" style="stop-color:#1C2656"/>
					<stop  offset="1" style="stop-color:#1D437F"/>
				</linearGradient>
				<path class="st15" d="M453.1,63.9c0,0,0.1,0.1,0.1,0.2c1,1.5,1.5,3.5,1.6,5.6c0.1,0.5,0.2,0.5,0.5,0.2c0.2-0.2,0.4-0.4,0.6-0.6
					c-0.3-1.1-0.7-2.2-1.2-3.2C454.5,65.8,453.8,64.5,453.1,63.9z"/>
				
					<linearGradient id="SVGID_16_" gradientUnits="userSpaceOnUse" x1="533.6201" y1="-2164.8523" x2="533.6201" y2="-2080.3103" gradientTransform="matrix(0.7 0 0 -0.7 71.633 -1422.766)">
					<stop  offset="0" style="stop-color:#161440"/>
					<stop  offset="0.4643" style="stop-color:#181744"/>
					<stop  offset="0.809" style="stop-color:#1C1E4C"/>
					<stop  offset="0.8458" style="stop-color:#1C2656"/>
					<stop  offset="1" style="stop-color:#1D437F"/>
				</linearGradient>
				<path class="st16" d="M462.1,71.1c1.1-1,2.4-1.6,3.2-1.3c0.5-1.2,0.3-1.9-0.3-2.2c-0.8-0.5-2.3,0.2-3.6,1.2
					c-3.5,2.7-6.5,6.8-8,8.7c-0.9,1.1-1.7,2.7-4,5.2c-3.6,3.9-8.5,6.2-13.1,4.7c-2.5-0.9-4.4-2.9-5.1-5.4c-0.1-0.5-0.4-0.6-0.7-0.3
					c-0.8,0.9-2.3,2.3-3.6,3.2c-0.1,0.1-0.5,0.3-0.8,0.2c-0.3-0.1-1.2-1.5-1.4-1.8c0,0,0-0.1,0-0.1v0c0.3,1.7,0.4,1.8,0.8,2.6
					c0.5,0.8,1,1.4,1.1,1.5c0.3,0.2,0.6,0,0.8-0.1c1-0.5,2.9-2,3.8-3c0.2-0.3,0.5-0.1,0.6,0.2c0.4,1.1,0.9,2,1.4,2.9
					c0.6,1,1.9,2.1,3.5,2.5c2.1,0.6,4.4,0.7,7.4-0.4c2.4-0.9,4.9-2.8,6.8-4.9c2.3-2.5,3.1-4.1,4-5.2
					C456.5,77.2,458.8,73.9,462.1,71.1z"/>
				
					<linearGradient id="SVGID_17_" gradientUnits="userSpaceOnUse" x1="469.402" y1="-2164.8494" x2="469.402" y2="-2079.759" gradientTransform="matrix(0.7 0 0 -0.7 71.633 -1422.766)">
					<stop  offset="0" style="stop-color:#161440"/>
					<stop  offset="0.4643" style="stop-color:#181744"/>
					<stop  offset="0.809" style="stop-color:#1C1E4C"/>
					<stop  offset="0.8458" style="stop-color:#1C2656"/>
					<stop  offset="1" style="stop-color:#1D437F"/>
				</linearGradient>
				<path class="st17" d="M398,77.6c-0.5-1.8,0-3.8,0.8-5.3c1.2-2.4,2.8-3.5,4.5-4.5c0.7-0.4,1-0.9,0.6-2c-0.1-0.3-0.2-0.9-0.3-1.4
					c0,0.5-0.2,1-0.7,1.2c-2,1-4.4,2.8-5.5,5.1c-1,1.9-1.1,4.3,0.3,6.5C397.7,77.2,397.8,77.4,398,77.6z"/>
				
					<linearGradient id="SVGID_18_" gradientUnits="userSpaceOnUse" x1="507.5249" y1="-2164.8882" x2="507.5249" y2="-2079.7354" gradientTransform="matrix(0.7 0 0 -0.7 71.633 -1422.766)">
					<stop  offset="0" style="stop-color:#161440"/>
					<stop  offset="0.4643" style="stop-color:#181744"/>
					<stop  offset="0.809" style="stop-color:#1C1E4C"/>
					<stop  offset="0.8458" style="stop-color:#1C2656"/>
					<stop  offset="1" style="stop-color:#1D437F"/>
				</linearGradient>
				<path class="st18" d="M411.8,52.8c-0.4-2.8,1.7-7.4,7.2-9.2c7.2-2.4,15.2-0.9,21.7,0.5c0.9-0.6,1.7-0.9,2.5-1.4
					c0.4-0.2-0.1-0.5-0.2-0.5c-8.3-1.6-17-3.6-25.3-0.5c-5.7,2.1-8.3,6.7-7,9.7C411,52,411.3,52.4,411.8,52.8z"/>
				
					<linearGradient id="SVGID_19_" gradientUnits="userSpaceOnUse" x1="496.4243" y1="-2164.8777" x2="496.4243" y2="-2079.741" gradientTransform="matrix(0.7 0 0 -0.7 71.633 -1422.766)">
					<stop  offset="0" style="stop-color:#161440"/>
					<stop  offset="0.4643" style="stop-color:#181744"/>
					<stop  offset="0.809" style="stop-color:#1C1E4C"/>
					<stop  offset="0.8458" style="stop-color:#1C2656"/>
					<stop  offset="1" style="stop-color:#1D437F"/>
				</linearGradient>
				<path class="st19" d="M433.8,61.6c2.7-0.3,5.2-0.5,7.6-0.7c0.7-0.1,1.3-0.1,1.5,0.1c0.9,0.9,1.9,1.7,2.6,2.1
					c0.5,0,0.8,0.1,1.1,0.3c0.3,0,0.5-0.2,0.7-0.4c0.3-0.3,0.3-0.7,0.3-1c-0.1-0.6-0.3-1.8-0.5-2.1c0.1,0.3,0,0.6-0.2,0.9
					c-0.2,0.2-0.5,0.4-0.9,0.4c-0.3,0-0.5-0.1-0.9-0.3c-0.8-0.4-1.8-1.2-2.5-2c-0.2-0.3-0.4-0.3-0.9-0.3c-2.6,0.1-6.6,0.5-9.4,0.9
					c-0.7,0.1-0.8,0.2-0.9,0.4c-4.4,7.2-9,15-14.2,20.2c-5.5,5.6-10,7.1-14.9,7.1c-5.6,0-10.6-3.1-11.8-8.7c0.7,3.1,2.7,6.9,5,8.5
					c2.4,1.7,4.7,2.2,7.4,2.3c5.5,0.1,10.5-2.2,15.9-7.6c5.1-5.2,9.6-12.5,13.9-19.7C433,61.9,433.1,61.7,433.8,61.6z"/>
				
					<linearGradient id="SVGID_20_" gradientUnits="userSpaceOnUse" x1="498.428" y1="-2164.9407" x2="498.428" y2="-2079.6575" gradientTransform="matrix(0.7 0 0 -0.7 71.633 -1422.766)">
					<stop  offset="0" style="stop-color:#161440"/>
					<stop  offset="0.4643" style="stop-color:#181744"/>
					<stop  offset="0.809" style="stop-color:#1C1E4C"/>
					<stop  offset="0.8458" style="stop-color:#1C2656"/>
					<stop  offset="1" style="stop-color:#1D437F"/>
				</linearGradient>
				<path class="st20" d="M424.8,60.7c-2.5,0.1-4.6,0.8-6.7,2.4c-0.6,0.4-1.5,0.4-1.9-0.2c-0.1-0.2-0.2-0.4-0.2-0.6
					c-0.1,0.9,0.3,2.3,0.6,2.8c0.3,0.5,1.3,0.8,2,0.2c1.7-1.2,3.2-2,4.9-2.3c0.4-0.6,0.9-1.2,1.4-2c0,0,0.1-0.1,0-0.2
					C425,60.8,425,60.7,424.8,60.7z"/>
				
					<linearGradient id="SVGID_21_" gradientUnits="userSpaceOnUse" x1="594.5419" y1="-2166.0706" x2="594.5419" y2="-2079.5774" gradientTransform="matrix(0.7 0 0 -0.7 71.633 -1422.766)">
					<stop  offset="0" style="stop-color:#161440"/>
					<stop  offset="0.4643" style="stop-color:#181744"/>
					<stop  offset="0.809" style="stop-color:#1C1E4C"/>
					<stop  offset="0.8458" style="stop-color:#1C2656"/>
					<stop  offset="1" style="stop-color:#1D437F"/>
				</linearGradient>
				<path class="st21" d="M487.8,40.2c0,0,0.1,0.1,0.1,0.2C487.8,40.3,487.8,40.2,487.8,40.2z"/>
				
					<linearGradient id="SVGID_22_" gradientUnits="userSpaceOnUse" x1="556.3683" y1="-2164.8596" x2="556.3683" y2="-2079.7478" gradientTransform="matrix(0.7 0 0 -0.7 71.633 -1422.766)">
					<stop  offset="0" style="stop-color:#161440"/>
					<stop  offset="0.4643" style="stop-color:#181744"/>
					<stop  offset="0.809" style="stop-color:#1C1E4C"/>
					<stop  offset="0.8458" style="stop-color:#1C2656"/>
					<stop  offset="1" style="stop-color:#1D437F"/>
				</linearGradient>
				<path class="st22" d="M433.8,56.6c-0.1,0.1,0,0.2,0.1,0.2c0.8,0,1.5-0.1,2.3-0.1c2.7-4.2,5.6-6.6,10-9.9
					c0.3-0.3,0.6-0.4,0.5-1.4c8.8,2,15.6,5.2,27,5.3c3.4,0,8.2-1.1,10.8-2.7c3-1.8,3.8-3.1,3.9-4.5c0-0.4-0.1-1.1-0.1-1.4
					c-0.1-0.5-0.2-1.1-0.3-1.5c0,0.2,0.1,0.4,0,0.6c-0.1,1.6-1.3,3.1-4.4,4.8c-3.5,1.9-7.1,2.5-10.9,2.5c-9.2,0.1-17.7-3.5-26.5-5.4
					c0,0.4,0.1,0.8-0.2,1.1C441.2,47.8,436.8,51.5,433.8,56.6z"/>
				
					<linearGradient id="SVGID_23_" gradientUnits="userSpaceOnUse" x1="534.2858" y1="-2164.7756" x2="534.2858" y2="-2079.7856" gradientTransform="matrix(0.7 0 0 -0.7 71.633 -1422.766)">
					<stop  offset="0" style="stop-color:#161440"/>
					<stop  offset="0.4643" style="stop-color:#181744"/>
					<stop  offset="0.809" style="stop-color:#1C1E4C"/>
					<stop  offset="0.8458" style="stop-color:#1C2656"/>
					<stop  offset="1" style="stop-color:#1D437F"/>
				</linearGradient>
				<path class="st23" d="M445.7,54.1c0.4-0.3,0.8-0.5,1.2-0.4c0.4-0.7,0.4-1.5,0-1.8c-0.4-0.3-1-0.3-1.5,0.1
					c-0.1,0.1-0.2,0.2-0.4,0.3c-0.9,0.9-1.1,2.1-1,3c0.1,0.4,0.2,0.4,0.4,0.4c0.2,0,0.3-0.1,0.5-0.2C445,55.1,445.2,54.6,445.7,54.1
					z"/>
				
					<linearGradient id="SVGID_24_" gradientUnits="userSpaceOnUse" x1="537.0048" y1="-2164.832" x2="537.0048" y2="-2079.7627" gradientTransform="matrix(0.7 0 0 -0.7 71.633 -1422.766)">
					<stop  offset="0" style="stop-color:#161440"/>
					<stop  offset="0.4643" style="stop-color:#181744"/>
					<stop  offset="0.809" style="stop-color:#1C1E4C"/>
					<stop  offset="0.8458" style="stop-color:#1C2656"/>
					<stop  offset="1" style="stop-color:#1D437F"/>
				</linearGradient>
				<path class="st24" d="M449.4,57.1c0.4-0.9,0.6-1.7,0.5-3.2c-0.1-1.1-0.4-2.1-0.7-2.6c0.6,1.2,0.3,2.7-0.3,3.8
					c-0.9,1.6-2.2,2.5-3.5,2.9c0,0-0.3,0-0.3,0.3c0,0.3,1,0.9,1.6,1.3c0.1,0,0.2-0.1,0.2-0.1C447.6,59.3,448.7,58.6,449.4,57.1z"/>
				
					<linearGradient id="SVGID_25_" gradientUnits="userSpaceOnUse" x1="490.3453" y1="-2164.8459" x2="490.3453" y2="-2079.7468" gradientTransform="matrix(0.7 0 0 -0.7 71.633 -1422.766)">
					<stop  offset="0" style="stop-color:#161440"/>
					<stop  offset="0.4643" style="stop-color:#181744"/>
					<stop  offset="0.809" style="stop-color:#1C1E4C"/>
					<stop  offset="0.8458" style="stop-color:#1C2656"/>
					<stop  offset="1" style="stop-color:#1D437F"/>
				</linearGradient>
				<path class="st25" d="M408.8,60.2c1.2,0.8,2.7,1.2,4.4,1.1c5.9-0.2,10.3-5,11.8-9.1c0.4-1.1,0.1-2.3-0.1-3.1
					c-0.1-0.3-0.2-1-0.4-1.5l0,0c0.2,0.4,0.2,1-0.2,1.8c-2.4,5.7-7,10.2-12.7,10.4c-3.4,0.1-6-1.6-7.1-4.2
					C405.4,57.5,407.2,59.2,408.8,60.2z"/>
			</g>
		</g>
		<g>
			<path class="st26" d="M455.4,22.5c-61.9,0-111.6,18.6-111.6,41.8c0,23.1,50,41.8,111.6,41.8c61.5,0,111.5-18.8,111.5-41.8
				C567,41.2,516.9,22.5,455.4,22.5z M344.6,64.8c0-4.9,2.1-9.8,6.7-14.3c16-16.1,57.8-27,103.9-27.2c61.1-0.3,110.9,18,111,40.6
				c0,4.9-2.3,9.7-6.8,14.3c-16,16.1-57.7,27.1-103.8,27.2C394.5,105.6,344.7,87.4,344.6,64.8z M566.3,61.1c0,0.2,0.1,0.4,0.1,0.6
				C566.3,61.5,566.3,61.3,566.3,61.1z"/>
		</g>
		<g>
			<g>
				
					<linearGradient id="SVGID_26_" gradientUnits="userSpaceOnUse" x1="430.8608" y1="-1.26" x2="405.0837" y2="94.9416" gradientTransform="matrix(1 0 0 -1 0 124.8504)">
					<stop  offset="0" style="stop-color:#A09E9E"/>
					<stop  offset="0.35" style="stop-color:#D6D5D2"/>
					<stop  offset="0.65" style="stop-color:#D6D5D2"/>
					<stop  offset="1" style="stop-color:#A09E9E"/>
				</linearGradient>
				<path class="st27" d="M351,50.2c16.1-16.2,58-27.1,104.2-27.3c6.4,0,12.7,0.1,18.8,0.5c-6-0.4-12.3-0.6-18.6-0.6
					c-61.7,0-111.2,18.5-111.2,41.5c0,1.1,0.1,2.2,0.4,3.2c-0.2-0.9-0.3-1.9-0.3-2.8C344.2,59.8,346.4,54.8,351,50.2z"/>
			</g>
			
				<linearGradient id="SVGID_27_" gradientUnits="userSpaceOnUse" x1="498.7391" y1="51.3944" x2="473.0887" y2="147.1228" gradientTransform="matrix(1 0 0 -1 0 124.8504)">
				<stop  offset="0" style="stop-color:#A09E9E"/>
				<stop  offset="0.35" style="stop-color:#D6D5D2"/>
				<stop  offset="0.65" style="stop-color:#D6D5D2"/>
				<stop  offset="1" style="stop-color:#A09E9E"/>
			</linearGradient>
			<path class="st28" d="M559.6,78.4c-16,16.1-57.9,27.2-104,27.3c-6.5,0-12.9-0.2-19.1-0.5c6.1,0.4,12.5,0.6,19,0.6
				c61.3,0,111.2-18.7,111.2-41.5c0-0.9-0.1-1.7-0.2-2.6c0.1,0.7,0.2,1.4,0.2,2.1C566.6,68.8,564.2,73.8,559.6,78.4z"/>
		</g>
		
			<linearGradient id="SVGID_28_" gradientUnits="userSpaceOnUse" x1="455.3824" y1="103.3758" x2="455.3824" y2="17.9098" gradientTransform="matrix(1 0 0 -1 0 124.8504)">
			<stop  offset="0" style="stop-color:#FFFFFF"/>
			<stop  offset="0.4682" style="stop-color:#FDFDFD"/>
			<stop  offset="0.6367" style="stop-color:#F6F6F7"/>
			<stop  offset="0.691" style="stop-color:#F2F2F3"/>
			<stop  offset="0.8" style="stop-color:#C9C5C2"/>
			<stop  offset="1" style="stop-color:#B1B0B1"/>
		</linearGradient>
		<path class="st29" d="M455.4,100.9c-58.1,0-105.3-16.4-105.3-36.6s47.1-36.6,105.3-36.6c58.1,0,105.3,16.4,105.3,36.6
			C560.6,84.5,513.5,100.9,455.4,100.9z M455.4,30.8c-56.1,0-101.6,15-101.6,33.5s45.5,33.5,101.6,33.5s101.6-15,101.6-33.5
			C556.9,45.8,511.5,30.8,455.4,30.8z"/>
		
			<linearGradient id="SVGID_29_" gradientUnits="userSpaceOnUse" x1="472.9107" y1="76.0527" x2="472.9107" y2="33.6723" gradientTransform="matrix(1 0 0 -1 0 124.8504)">
			<stop  offset="0" style="stop-color:#FFFFFF"/>
			<stop  offset="0.4074" style="stop-color:#FDFDFD"/>
			<stop  offset="0.5539" style="stop-color:#F7F6F6"/>
			<stop  offset="0.6582" style="stop-color:#ECEBEB"/>
			<stop  offset="0.691" style="stop-color:#E7E5E5"/>
			<stop  offset="0.8" style="stop-color:#DFE0DF"/>
			<stop  offset="1" style="stop-color:#C9C5C2"/>
		</linearGradient>
		<path class="st30" d="M520.9,52.3c0.2-0.3,0-0.4-0.3-0.4c-1.7,0-3.9,0-5.7,0c-0.4,0-0.6,0-0.8,0.4c-0.6,1.2-8.5,13-10,15.3
			c-0.3,0.4-0.6,0.3-0.6-0.1c-0.1-1.4-1.3-2.9-3.2-3.7c-1.4-0.6-2.8-0.7-4.2-0.5c-2.6,0.3-4.9,1.7-6.9,3.2c-3.1,2.3-5.7,5.3-9.1,7.6
			c-1.9,1.2-4.4,2.3-6.1,0.7c-1.5-1.4-1.4-4.6,1-7.1c0.3-0.3,0.5,0,0.5,0.2c-0.2,1.1,0.1,2.2,0.9,3c1,0.9,2.5,1,3.8,0.4
			c1.5-0.7,2.4-2.2,2.6-3.8c0.4-2.5-1.5-4.7-4-4.9c-2-0.1-3.8,0.5-5.7,2.1c-0.9,0.8-1.4,1.3-2.2,2.5c-0.2,0.3-0.5,0.3-0.5-0.1
			c0.1-3.2-1.2-5-3.9-5.1c-2.1,0-4.3,1.1-6,2.4c-1.9,1.5-3.5,3.5-5.3,5.4c-0.2,0.2-0.4,0.2-0.5-0.2c0-2.1-0.6-4.2-1.6-5.6
			c-0.3-0.5-1.1-0.8-1.7-0.4c-0.3,0.2-1.3,0.6-2,1.2c-0.4,0.3-0.5,0.7-0.3,1.3c1,3.2,0.8,6.8-0.5,9.8c-1.2,2.8-3.5,5.3-6.2,6.2
			c-1.8,0.6-3.6,0.3-4.8-1.3c-1.6-2.2-0.9-6,1.4-9.1c2.1-2.8,5.1-4.5,8.1-5.7c0.4-0.1,0.4-0.4,0.3-0.7c-0.2-0.5-0.4-1.2-0.5-1.5
			c-0.3-0.7-1-0.8-2-0.7c-2.2,0.3-4.1,1-6.1,2c-5.1,2.7-7.6,8-8.7,10.8c-0.5,1.3-1,2.2-1.6,2.9c-0.8,1-1.8,1.9-3.6,3.5
			c-0.2,0.2-0.3,0.5-0.1,0.8c0.2,0.4,1.1,1.7,1.4,1.8c0.3,0.2,0.6-0.1,0.8-0.2c1.3-0.9,2.8-2.2,3.6-3.2c0.3-0.3,0.5-0.2,0.7,0.3
			c0.7,2.5,2.5,4.5,5.1,5.4c4.6,1.6,9.5-0.7,13.1-4.7c2.3-2.5,3.2-4.1,4-5.2c1.5-1.9,4.5-6,8-8.7c1.3-1,2.8-1.7,3.6-1.2
			c0.6,0.4,0.8,1.3-0.2,3.1c-3.6,6.6-8.9,14.3-9.9,16.2c-0.2,0.3,0,0.6,0.3,0.6c1.9,0,3.7,0,5.5,0c0.3,0,0.4-0.2,0.6-0.3
			c2.8-4.3,5.3-8.4,8.1-12.7c0.2-0.3,0.3-0.1,0.3,0.1c0.1,1,0.3,2.3,0.9,3.2c1,1.6,2.5,2.3,4.2,2.3c1.3,0,2-0.2,3.4-0.7
			c1.2-0.4,2.1-1,2.8-1.5c0.4-0.3,0.5,0.2,0.5,0.3c-0.6,3.4,0.1,7.5,3.6,9.2c4.1,2,8.5-0.8,11.1-3.3c0.3-0.3,0.5-0.2,0.5,0.3
			c0,1,0.5,2.1,1.3,2.9c2.2,2.2,6.5,1.3,10.9-2.1c2.8-2.2,5.7-5.2,8.4-8.5c0.1-0.1,0.2-0.3,0-0.5c-0.4-0.4-1-0.9-1.4-1.3
			c-0.2-0.2-0.5-0.1-0.6,0c-2.7,2.6-5.2,5.5-8.7,8c-1.2,0.8-3.1,1.5-4,0.3c-0.3-0.4-0.3-1.1,0-1.9C503.7,78.6,520.1,53.8,520.9,52.3
			z M499.3,73.2c0,0.2,0.3,0.4,0.5,0.5c0.1,0,0.1,0.1,0,0.3c-0.7,1.5-1.3,2.3-2.2,3.6c-0.8,1.2-1.7,2.1-2.8,3
			c-1.6,1.4-3.9,2.8-5.8,1.8c-0.8-0.4-1.2-1.6-1.2-2.6c0-2.7,1.2-5.4,3.4-8.1c2.7-3.3,5.6-5,7.6-4.1c2,1,1.4,3.3,0.5,5.1
			C499.3,72.9,499.3,73.1,499.3,73.2z"/>
		
			<linearGradient id="SVGID_30_" gradientUnits="userSpaceOnUse" x1="439.1425" y1="92.1824" x2="439.1425" y2="33.3952" gradientTransform="matrix(1 0 0 -1 0 124.8504)">
			<stop  offset="0" style="stop-color:#FFFFFF"/>
			<stop  offset="0.4074" style="stop-color:#FDFDFD"/>
			<stop  offset="0.5539" style="stop-color:#F7F6F6"/>
			<stop  offset="0.6582" style="stop-color:#ECEBEB"/>
			<stop  offset="0.691" style="stop-color:#E7E5E5"/>
			<stop  offset="0.8" style="stop-color:#DFE0DF"/>
			<stop  offset="1" style="stop-color:#C9C5C2"/>
		</linearGradient>
		<path class="st31" d="M402.4,87.3c-6.1,0-11.5-3.7-12.1-10.2c-0.3-3.6,0.7-6.8,2.7-9.5c1.8-2.4,4.9-4.3,7.5-4.8
			c0.8-0.2,2,0,2.4,0.5c0.8,0.9,0.5,1.8-0.2,2.2c-2,1-4.4,2.8-5.5,5.1c-1,1.9-1.1,4.3,0.3,6.5c2.5,3.7,9.3,3.8,15.6-2.1
			c1.6-1.4,3-2.8,4.4-4.5c2.8-3.2,3.7-4.4,7.4-9.5c0,0,0.1-0.1,0-0.2c0-0.1-0.1-0.1-0.2-0.1c-2.5,0.1-4.6,0.8-6.7,2.4
			c-0.6,0.4-1.5,0.4-1.9-0.2c-0.4-0.7-0.1-1.5,0.6-2c3.4-2.3,7.1-2.8,10.8-3.4c0,0,0.3,0,0.5-0.3c1.6-2,2.7-3.8,4.4-5.8
			c1.7-2,3.8-3.9,5.4-5.3c2.3-2,3.8-2.6,5.3-3.4c0.4-0.2-0.1-0.5-0.2-0.5c-8.3-1.6-17-3.6-25.3-0.5c-5.7,2.1-8.3,6.7-7,9.7
			c0.9,2.2,3.7,2.5,6.3,1.2c2.2-1.1,4.2-2.8,5.7-5c0.8-1.3,2.5-0.4,1.6,1.8c-2.4,5.7-7,10.2-12.7,10.4c-4.8,0.2-7.9-3.4-7.9-7.7
			c0-8.6,9.6-14.3,19.6-15.1c12.1-1,23.5,2.2,35.6,3.7c9.2,1.1,18,1.1,27.3-1c1.1-0.2,1.9,0.5,1.8,1.6c-0.1,1.6-1.3,3.1-4.4,4.8
			c-3.5,1.9-7.1,2.5-10.9,2.5c-9.2,0.1-17.7-3.5-26.5-5.4c0,0.4,0.1,0.8-0.2,1.1c-4.9,3.6-9.3,7.3-12.3,12.4c-0.1,0.1,0,0.2,0.1,0.2
			c2.6-0.1,4.9-0.2,7.3-0.4c0.4,0,0.4-0.1,0.4-0.5c-0.2-1.8,0.3-3.8,1.9-5.2c1.6-1.4,3.6-1.6,4.9-0.6c1.5,1.2,1.4,3.3,0.5,4.9
			c-0.9,1.6-2.2,2.5-3.5,2.9c0,0-0.3,0-0.3,0.3c0,0.4,1.9,1.4,2,1.7c0.1,0.3,0.1,0.7-0.2,1c-0.2,0.2-0.5,0.4-0.9,0.4
			c-0.3,0-0.5-0.1-0.9-0.3c-0.8-0.4-1.8-1.2-2.5-2c-0.2-0.3-0.4-0.3-0.9-0.3c-2.6,0.1-6.6,0.5-9.4,0.9c-0.7,0.1-0.8,0.2-0.9,0.4
			c-4.4,7.2-9,15-14.2,20.2C411.8,85.8,407.3,87.3,402.4,87.3z M444.1,55.3c0.1,0.4,0.2,0.4,0.4,0.4c0.8-0.2,1.7-0.8,2.3-1.6
			c0.5-0.7,0.7-1.8,0.2-2.2c-0.4-0.4-1.1-0.3-1.7,0.2C444.2,53,443.9,54.3,444.1,55.3L444.1,55.3"/>
	</g>
</g>
<g>
	<g>
		<g>
			<path class="st32" d="M13.7,25h27c2.9,0,5.5,0.7,7.6,2.2c2.2,1.5,3.8,3.5,5,5.9c1.1,2.4,1.7,5,1.7,7.7c0,2.9-0.7,5.6-2.1,8.3
				c-1.4,2.7-3.4,4.8-6.2,6.5c-2.7,1.7-6,2.5-9.9,2.5c-1.7,0-4.2-0.3-7.4-1l-2.8-7.8c2.4,0.7,4.4,1.1,5.8,1.1c2.1,0,3.8-0.4,5.3-1.3
				c1.5-0.9,2.6-2,3.4-3.3c0.7-1.4,1.1-2.8,1.1-4.3c0-2.1-0.7-4-2-5.6c-1.4-1.6-3.2-2.4-5.7-2.4h-9.3v47.3H13.7V25z"/>
			<path class="st32" d="M68.6,24.4v56.4H56.8V24.4H68.6z"/>
			<path class="st32" d="M75.5,41.5c2.4-0.7,5.2-1.3,8.3-1.9c3.1-0.5,6.2-0.8,9.2-0.8c2.3,0,4.5,0.2,6.6,0.5
				c2.1,0.4,3.9,0.9,5.5,1.7c1.6,0.8,2.9,1.9,3.8,3.2c1,1.4,1.5,3,1.6,4.9v31.4H99.1V59.8c-1.3,0.8-2.9,1.5-4.8,2.2
				c-1.9,0.6-3.9,1.3-6.1,2c-2.1,0.7-3.8,1.6-4.9,2.5c-1.1,1-1.8,2.3-1.9,4c0.1,1.7,0.8,2.9,2,3.7c1.3,0.8,2.8,1.2,4.6,1.2
				c1.3,0,2.7-0.2,4.1-0.6c1.4-0.4,2.5-0.7,3.1-1l-1.3,7.2c-3.6,0.9-6.6,1.3-9.1,1.3c-4.8,0-8.4-1.2-10.9-3.7
				c-2.5-2.5-3.8-5.3-3.8-8.6c0-1.3,0.1-2.2,0.2-2.8c0.6-1.9,1.6-3.5,2.8-4.8c1.3-1.3,2.8-2.3,4.6-3.1c1.8-0.8,3.7-1.5,5.8-2
				c2.1-0.6,4.9-1.2,8.4-2c4.5-0.9,6.7-2.5,6.7-4.7c0-0.9-0.4-1.8-1.2-2.6c-0.8-0.9-1.8-1.4-2.9-1.7c-0.8-0.2-1.9-0.3-3.4-0.3
				c-2.3,0-4.9,0.3-7.9,1c-3,0.7-5.8,1.5-8.4,2.6L75.5,41.5z"/>
			<path class="st32" d="M142.5,39.5l1.3,8.5c-4.2-1.4-7.8-2.2-10.9-2.2c-1.7,0-3.1,0.3-4.1,0.8c-1,0.5-1.5,1.3-1.5,2.2
				c0,1.6,1.6,3.6,4.7,5.7c8.5,6,12.7,11.4,12.7,16.3c0,2.3-0.8,4.3-2.3,6c-0.9,1.5-2.6,2.6-5.3,3.4c-2.7,0.8-5.8,1.2-9.4,1.2
				c-4.9,0-9.4-0.6-13.5-1.9l-1.3-9.1c1.5,0.9,3.4,1.7,5.6,2.3c2.2,0.6,4.2,0.9,6.1,0.9c1.9,0,3.5-0.3,4.7-0.9
				c1.3-0.6,1.9-1.4,1.9-2.5c0-1.5-0.9-3.2-2.7-5.1c-0.8-0.8-2.4-2.1-4.9-3.9c-2.5-1.8-4.4-3.4-5.8-4.9c-1.4-1.5-2.4-3.2-3-5.1
				c-0.4-1.8-0.5-2.7-0.5-2.9c0-3.5,1.5-6.1,4.6-7.7c3.1-1.6,7-2.4,11.6-2.4C134.4,38.3,138.3,38.7,142.5,39.5z"/>
			<path class="st32" d="M186,71l-1.3,8.5c-1.2,0.5-3.1,1-5.7,1.5c-2.7,0.5-5.4,0.7-8.2,0.7c-4.1,0-7.9-0.6-11.5-1.9
				c-3.6-1.3-6.5-3.5-8.8-6.7c-2.3-3.2-3.5-7.6-3.5-13c0-0.4,0.1-1.1,0.2-2c0.1-1,0.2-1.7,0.2-2.3c0.4-3.6,1.6-6.7,3.7-9.4
				c2.1-2.6,4.7-4.6,7.9-6c3.2-1.4,6.5-2,9.9-2c3.5,0,6.7,0.7,9.8,2.2c3.1,1.5,5.5,3.7,7.4,6.6c1.9,2.9,2.8,6.4,2.8,10.5
				c0,0.5,0,1.1-0.1,1.9c-0.1,0.8-0.1,1.3-0.1,1.7h-30.3c0,0,0,0.1-0.1,0.4c0,0.2-0.1,0.4-0.1,0.4c0,4.2,1.3,7.3,4,9.2
				c2.7,1.9,6,2.8,10.1,2.8c2.3,0,4.8-0.3,7.4-0.9C182.3,72.6,184.4,71.9,186,71z M177.5,55.2c0-1.9-0.4-3.5-1.1-4.9
				c-0.8-1.4-1.8-2.4-3.1-3.2c-1.3-0.7-2.7-1.1-4.3-1.1c-2.6,0-5,0.8-7,2.3c-2.1,1.5-3.2,3.8-3.5,6.8H177.5z"/>
			<path class="st32" d="M190.9,80.8V39.5h11.8v5.9c2-2.5,4.3-4.3,6.9-5.5c2.7-1.2,5.4-1.8,8.2-1.8c5.7,0,10,1.1,12.9,3.3
				c2.9,2.2,4.3,5.1,4.3,8.6v30.8H223V54.6c0-2.2-0.9-4-2.8-5.3c-1.9-1.4-4-2-6.5-2c-2.9,0-5.4,1-7.6,2.9c-2.2,1.9-3.3,4.7-3.5,8.4
				v22.3H190.9z"/>
			<path class="st32" d="M271.2,40.2l1.3,9.8c-4-1.7-7.6-2.6-10.9-2.6c-2.7,0-5,0.6-7,1.9c-1.9,1.2-3.4,2.9-4.3,4.8
				c-1,2-1.4,4.1-1.4,6.3c0,2.4,0.5,4.6,1.6,6.7c1.1,2.1,2.7,3.8,4.9,5.1c2.2,1.3,4.8,1.9,7.8,1.9c2.2-0.1,5.1-0.9,8.7-2.4l-0.7,8.5
				c-4.4,1.5-8.4,2.2-11.9,2.2c-3.3,0-6.4-0.6-9.1-1.9c-2.7-1.3-5.1-3-6.9-5.1c-1.9-2.2-3.3-4.6-4.3-7.3c-1-2.7-1.5-5.4-1.5-8.2
				c0-2.8,0.5-5.5,1.4-8c1-2.6,2.4-4.8,4.3-6.9c1.9-2,4.4-3.6,7.3-4.8c2.9-1.2,6.3-1.8,10.1-1.8C263.3,38.5,266.8,39.1,271.2,40.2z"
				/>
			<path class="st32" d="M274.6,23.8h11.8v8.4h-11.8V23.8z M274.6,39.5h11.8v41.3h-11.8V39.5z"/>
			<path class="st32" d="M293.3,41.5c2.4-0.7,5.2-1.3,8.3-1.9c3.1-0.5,6.2-0.8,9.2-0.8c2.3,0,4.5,0.2,6.6,0.5c2,0.4,3.9,0.9,5.5,1.7
				c1.6,0.8,2.9,1.9,3.8,3.2c1,1.4,1.5,3,1.6,4.9v31.4h-11.3V59.8c-1.3,0.8-2.9,1.5-4.8,2.2c-1.9,0.6-4,1.3-6.1,2
				c-2.1,0.7-3.8,1.6-4.9,2.5c-1.1,1-1.8,2.3-1.9,4c0.1,1.7,0.8,2.9,2,3.7c1.3,0.8,2.8,1.2,4.6,1.2c1.3,0,2.7-0.2,4.1-0.6
				c1.4-0.4,2.5-0.7,3.1-1l-1.3,7.2c-3.6,0.9-6.6,1.3-9.1,1.3c-4.8,0-8.4-1.2-10.9-3.7c-2.5-2.5-3.8-5.3-3.8-8.6
				c0-1.3,0.1-2.2,0.2-2.8c0.6-1.9,1.6-3.5,2.8-4.8c1.3-1.3,2.8-2.3,4.6-3.1c1.8-0.8,3.7-1.5,5.8-2c2.1-0.6,4.9-1.2,8.4-2
				c4.5-0.9,6.7-2.5,6.7-4.7c0-0.9-0.4-1.8-1.2-2.6c-0.8-0.9-1.8-1.4-3-1.7c-0.8-0.2-1.9-0.3-3.4-0.3c-2.3,0-4.9,0.3-7.9,1
				c-3,0.7-5.8,1.5-8.4,2.6L293.3,41.5z"/>
		</g>
	</g>
</g>
<g>
	<g>
		<path class="st32" d="M207.2,109.6v-18h5.2c2.8,0,4.7,0.7,5.8,2.1c1.1,1.4,1.6,3.7,1.6,6.9c0,3.3-0.5,5.6-1.6,7
			c-1.1,1.4-3,2-5.8,2H207.2z M210.1,107.2h2.6c1.7,0,2.8-0.5,3.4-1.5c0.6-1,0.9-2.7,0.9-5.1c0-2.4-0.3-4.1-0.9-5
			c-0.6-0.9-1.7-1.4-3.4-1.4h-2.6V107.2z"/>
		<path class="st32" d="M222.1,109.6v-18h10.3v2.6h-7.5v4.9h7.2v2.6h-7.2v5.5h7.6v2.5H222.1z"/>
		<path class="st32" d="M239.3,109.6v-18h3l6.8,12.4V91.6h2.7v18h-2.6l-7.3-13v13H239.3z"/>
		<path class="st32" d="M253.8,109.6l5.6-18.1h3l5.6,18.1H265l-1-3.4h-6.4l-1,3.4H253.8z M258.3,103.7h5l-2.5-8.3L258.3,103.7z"/>
		<path class="st32" d="M272.1,109.6v-6.4l-5.6-11.6h3l4.1,8.6l4.1-8.6h2.9l-5.6,11.6v6.4H272.1z"/>
		<path class="st32" d="M279.2,109.6l5.6-18.1h3l5.6,18.1h-2.9l-1-3.4H283l-1,3.4H279.2z M283.7,103.7h5l-2.5-8.3L283.7,103.7z"/>
		<path class="st32" d="M304,109.6L301,103h-3v6.6h-2.8v-18h6.3c1.9,0,3.3,0.5,4.2,1.4c0.9,0.9,1.3,2.3,1.3,4.1c0,3-1.1,4.8-3.3,5.6
			l3.1,6.9H304z M298,100.5h3.5c1,0,1.7-0.2,2.2-0.7c0.4-0.5,0.7-1.3,0.7-2.5c0-1.1-0.2-1.9-0.7-2.4s-1.2-0.7-2.2-0.7H298V100.5z"/>
		<path class="st32" d="M309.9,109.6v-18h2.8v18H309.9z"/>
		<path class="st32" d="M319.7,109.6V94.2h-5v-2.6h12.8v2.6h-5v15.4H319.7z"/>
	</g>
</g>
</svg>
